<?xml version="1.0" encoding="utf-8" ?>
<svg xmlns="http://www.w3.org/2000/svg" xmlns:xlink="http://www.w3.org/1999/xlink" width="1024" height="1024">
	<path fill="#3D99F5" transform="scale(2 2)" d="M162.675 96.2391C162.378 92.2357 162.725 88.0938 162.708 84.0725C162.677 76.5384 160.708 63.9788 171.742 63.2298C186.383 62.236 182.198 86.8508 182.199 96.2391L246.332 96.2391C246.251 89.6654 244.786 70.4258 248.965 66.1495C254.171 60.8211 264.197 63.6518 265.637 70.947C266.309 74.3457 266.319 91.8125 265.884 96.2391L330.48 96.2391C330.299 92.6097 329.865 74.7195 330.496 71.4282C332.55 60.718 347.924 60.8222 350.392 71.2315C351.512 75.955 350.611 90.6759 350.695 96.2391C352.164 96.2152 353.858 96.0316 355.305 96.2391C385.488 95.736 406.695 108.566 406.937 140.981L406.928 168.464L104.227 168.464C103.659 166.092 104.19 161.427 104.207 158.785L104.187 138.75C104.193 127.592 108.543 116.806 116.495 108.92C130.537 94.9938 144.404 96.2126 162.675 96.2391Z"/>
	<path fill="#57B1FB" transform="scale(2 2)" d="M162.675 96.2391C162.378 92.2357 162.725 88.0938 162.708 84.0725C162.677 76.5384 160.708 63.9788 171.742 63.2298C186.383 62.236 182.198 86.8508 182.199 96.2391L182.218 115.369C182.215 120.478 183.276 128.198 179.56 132.387C174.897 137.645 165.136 135.635 163.239 128.751C161.475 122.351 163.117 104.258 162.69 96.4808L162.675 96.2391Z"/>
	<path fill="#57B1FB" transform="scale(2 2)" d="M246.332 96.2391C246.251 89.6654 244.786 70.4258 248.965 66.1495C254.171 60.8211 264.197 63.6518 265.637 70.947C266.309 74.3457 266.319 91.8125 265.884 96.2391C265.609 98.789 265.814 101.546 265.828 104.113L265.921 119.308C265.933 122.024 266.177 125.053 265.583 127.71C263.495 137.053 249.051 138.06 246.773 128.299C245.29 121.948 246.481 103.664 246.332 96.2391Z"/>
	<path fill="#57B1FB" transform="scale(2 2)" d="M330.48 96.2391C330.299 92.6097 329.865 74.7195 330.496 71.4282C332.55 60.718 347.924 60.8222 350.392 71.2315C351.512 75.955 350.611 90.6759 350.695 96.2391C352.164 96.2152 353.858 96.0316 355.305 96.2391C353.773 96.4083 352.232 96.2966 350.695 96.2391L350.689 116.323C350.684 119.71 351.013 123.516 350.436 126.856C348.743 136.643 333.904 138.199 331.101 128.437C328.49 119.348 332.006 104.971 330.48 96.2391Z"/>
	<path fill="#FAFAF9" transform="scale(2 2)" d="M104.227 168.464L406.928 168.464C405.564 172.022 406.94 177.899 406.967 181.742L406.796 391.064C406.706 399.921 407.506 410.795 405.153 419.304C398.455 443.53 380.331 447.6 359.191 447.644L157.608 447.615C151.169 447.614 143.291 448.006 137.037 446.545C119.256 442.39 106.855 426.581 104.74 408.879C103.858 401.496 104.221 393.85 104.222 386.421L104.589 169.882C104.594 169.308 104.604 168.933 104.227 168.464Z"/>
	<path fill="#FCC93C" transform="scale(2 2)" d="M295.892 225.572C308.378 225.446 303.562 237.504 301.307 244.66L286.997 290.958C284.029 300.434 281.226 309.936 278.153 319.383C289.54 319.37 300.934 319.505 312.321 319.383C308.833 322.504 305.661 325.932 302.377 329.264L228.975 404.753C224.764 409.129 221.401 414.619 214.818 414.773C203.593 412.1 208.005 403.109 210.52 395.628L228.687 341.496C231.115 334.287 233.755 327.15 235.963 319.868L199.993 319.868C203.484 315.732 207.468 312.03 211.315 308.231L282.899 236.192C286.629 232.455 290.351 226.44 295.892 225.572Z"/>
</svg>
